<svg width="28" height="28" viewBox="0 0 28 28" fill="none" xmlns="http://www.w3.org/2000/svg">
<path d="M25.6317 21.385C25.6317 21.805 25.5383 22.2367 25.34 22.6567C25.1417 23.0767 24.885 23.4733 24.5467 23.8467C23.975 24.4767 23.345 24.9317 22.6333 25.2233C21.9333 25.515 21.175 25.6667 20.3583 25.6667C19.1683 25.6667 17.8967 25.3867 16.555 24.815C15.2133 24.2433 13.8717 23.4733 12.5417 22.505C11.2 21.525 9.92833 20.44 8.71499 19.2383C7.51333 18.025 6.42833 16.7533 5.45999 15.4233C4.50333 14.0933 3.73333 12.7633 3.17333 11.445C2.61333 10.115 2.33333 8.84333 2.33333 7.62999C2.33333 6.83666 2.47333 6.07833 2.75333 5.37833C3.03333 4.66666 3.47666 4.01333 4.09499 3.42999C4.84166 2.69499 5.65833 2.33333 6.52166 2.33333C6.84833 2.33333 7.17499 2.40333 7.46666 2.54333C7.76999 2.68333 8.03833 2.89333 8.24833 3.19666L10.955 7.01166C11.165 7.30333 11.3167 7.57166 11.4217 7.82833C11.5267 8.07333 11.585 8.31833 11.585 8.53999C11.585 8.81999 11.5033 9.09999 11.34 9.36833C11.1883 9.63666 10.9667 9.91666 10.6867 10.1967L9.79999 11.1183C9.67166 11.2467 9.61333 11.3983 9.61333 11.585C9.61333 11.6783 9.625 11.76 9.64833 11.8533C9.68333 11.9467 9.71833 12.0167 9.74166 12.0867C9.95166 12.4717 10.3133 12.9733 10.8267 13.58C11.3517 14.1867 11.9117 14.805 12.5183 15.4233C13.1483 16.0417 13.755 16.6133 14.3733 17.1383C14.98 17.6517 15.4817 18.0017 15.8783 18.2117C15.9367 18.235 16.0067 18.27 16.0883 18.305C16.1817 18.34 16.275 18.3517 16.38 18.3517C16.5783 18.3517 16.73 18.2817 16.8583 18.1533L17.745 17.2783C18.0367 16.9867 18.3167 16.765 18.585 16.625C18.8533 16.4617 19.1217 16.38 19.4133 16.38C19.635 16.38 19.8683 16.4267 20.125 16.5317C20.3817 16.6367 20.65 16.7883 20.9417 16.9867L24.8033 19.7283C25.1067 19.9383 25.3167 20.1833 25.445 20.475C25.5617 20.7667 25.6317 21.0583 25.6317 21.385Z" stroke="#3F83B8" stroke-width="1.5" stroke-miterlimit="10"/>
</svg>
