<svg width="44" height="44" viewBox="0 0 44 44" fill="none" xmlns="http://www.w3.org/2000/svg">
<path d="M21.6667 3.66666C11.7487 3.66666 3.66666 11.7487 3.66666 21.6667C3.66666 31.5847 11.7487 39.6667 21.6667 39.6667C31.5847 39.6667 39.6667 31.5847 39.6667 21.6667C39.6667 11.7487 31.5847 3.66666 21.6667 3.66666ZM28.8667 23.0167H23.0167V28.8667C23.0167 29.6047 22.4047 30.2167 21.6667 30.2167C20.9287 30.2167 20.3167 29.6047 20.3167 28.8667V23.0167H14.4667C13.7287 23.0167 13.1167 22.4047 13.1167 21.6667C13.1167 20.9287 13.7287 20.3167 14.4667 20.3167H20.3167V14.4667C20.3167 13.7287 20.9287 13.1167 21.6667 13.1167C22.4047 13.1167 23.0167 13.7287 23.0167 14.4667V20.3167H28.8667C29.6047 20.3167 30.2167 20.9287 30.2167 21.6667C30.2167 22.4047 29.6047 23.0167 28.8667 23.0167Z" fill="white"/>
</svg>
