<svg width="44" height="44" viewBox="0 0 44 44" fill="none" xmlns="http://www.w3.org/2000/svg">
<path d="M25.8227 13.4621L15.3033 16.9581C8.23222 19.3236 8.23222 23.1808 15.3033 25.5348L18.4254 26.5719L19.4622 29.6949C21.8153 36.7684 25.6829 36.7684 28.036 29.6949L31.5425 19.1838C33.1035 14.4643 30.5406 11.889 25.8227 13.4621ZM26.1955 19.7315L21.7687 24.183C21.594 24.3578 21.3726 24.4394 21.1513 24.4394C20.93 24.4394 20.7086 24.3578 20.5339 24.183C20.1961 23.8451 20.1961 23.2857 20.5339 22.9478L24.9606 18.4963C25.2985 18.1583 25.8576 18.1583 26.1955 18.4963C26.5333 18.8342 26.5333 19.3936 26.1955 19.7315Z" fill="white"/>
</svg>
