<svg width="44" height="44" viewBox="0 0 44 44" fill="none" xmlns="http://www.w3.org/2000/svg">
<path fill-rule="evenodd" clip-rule="evenodd" d="M23.9091 14.6663C23.9091 12.6423 25.4973 11 27.454 11C27.9186 10.9989 28.3788 11.0928 28.8084 11.2764C29.238 11.46 29.6286 11.7297 29.9579 12.0702C30.2872 12.4106 30.5487 12.8151 30.7275 13.2606C30.9063 13.706 30.9989 14.1837 31 14.6663C31 16.6914 29.4118 18.3337 27.454 18.3337C26.9845 18.3343 26.5196 18.238 26.0862 18.0502C25.6529 17.8625 25.2598 17.5872 24.9298 17.2403L20.0221 20.7119C20.1588 21.4192 20.0918 22.1527 19.8294 22.8206L25.2104 26.4946C25.8441 25.9576 26.6372 25.665 27.4551 25.6663C27.9196 25.6653 28.3798 25.7593 28.8094 25.9431C29.2389 26.1269 29.6295 26.3967 29.9586 26.7373C30.2878 27.0778 30.5492 27.4824 30.7279 27.9279C30.9066 28.3734 30.999 28.8511 31 29.3337C31 31.3577 29.4118 33 27.454 33C26.516 33.002 25.6156 32.6169 24.9508 31.9294C24.286 31.2419 23.9113 30.3082 23.9091 29.3337C23.9082 28.8196 24.0125 28.3112 24.2151 27.8421L18.8765 24.2C18.23 24.784 17.4017 25.1048 16.5449 25.1031C16.0803 25.1043 15.6201 25.0103 15.1905 24.8266C14.7608 24.6429 14.3703 24.373 14.041 24.0325C13.7118 23.6919 13.4505 23.2872 13.2718 22.8417C13.0932 22.3961 13.0008 21.9184 13 21.4357C13.001 20.9531 13.0934 20.4755 13.2721 20.0301C13.4508 19.5846 13.7122 19.1801 14.0414 18.8397C14.3706 18.4992 14.7611 18.2294 15.1907 18.0458C15.6203 17.8622 16.0804 17.7682 16.5449 17.7694C17.6715 17.7694 18.6732 18.3117 19.3222 19.1565L24.0795 15.7916C23.9663 15.4281 23.9088 15.0484 23.9091 14.6663Z" fill="white"/>
</svg>
